<?xml version="1.0" encoding="UTF-8"?><svg id="Layer_1" xmlns="http://www.w3.org/2000/svg" viewBox="0 0 79.2 79.2"><path id="Path_6" d="M42.2,42c0,1.2-1,2.2-2.2,2.2s-2.2-1-2.2-2.2,1-2.2,2.2-2.2,2.2,1,2.2,2.2h0"/><path id="Path_7" d="M52.9,42c0,1.2-1,2.2-2.2,2.2s-2.2-1-2.2-2.2,1-2.2,2.2-2.2h0c1.2,0,2.2,1,2.2,2.2"/><path id="Path_8" d="M63.5,42c0,1.2-1,2.2-2.2,2.2s-2.2-1-2.2-2.2,1-2.2,2.2-2.2,2.2,1,2.2,2.2"/><path d="M45,4.4c4.2,0,7.6,3.4,7.6,7.6v12h4.4V12c0-6.6-5.4-12-12-12H12C5.4,0,0,5.4,0,12V30c0,6.6,5.4,12,12,12h11.9v-4.4H12c-4.2,0-7.6-3.4-7.6-7.6V12c0-4.2,3.4-7.6,7.6-7.6H45"/><path d="M67.2,25.4c4.2,0,7.6,3.4,7.6,7.6v37.1c-.2-.2-.4-.5-.6-.7-4.9-5.3-10-10.8-15.5-10.8h-24.5c-4.2,0-7.6-3.4-7.6-7.6v-18c0-4.2,3.4-7.6,7.6-7.6h33m0-4.4H34.2c-6.6,0-12,5.4-12,12v18c0,6.6,5.4,12,12,12h24.4c6.6,0,16.2,16.2,20.6,16.2V33c0-6.6-5.4-12-12-12h0Z"/></svg>