<?xml version="1.0" encoding="UTF-8"?><svg id="Layer_1" xmlns="http://www.w3.org/2000/svg" viewBox="0 0 79.2 79.2"><defs><style>.cls-1{fill:none;stroke:#000;stroke-linecap:round;stroke-linejoin:round;stroke-width:4.4px;}</style></defs><path class="cls-1" d="M68.4,75c-3.3,1.9-7,2.3-10.3,1.4,0,0-19.2-5.4-34.6-20.7C8.2,40.3,2.8,21.1,2.8,21.1c-.9-3.4-.5-7.1,1.4-10.3C8,4.2,21-1.6,23,5.8c2.1,7.7,2.7,10.2,5,18.8,1,3.8-2.3,6-6.6,6.8,1.8,4.8,4.9,10.7,10.2,16s11.4,8.5,16.3,10.3c.8-4.2,3-7.4,6.7-6.4,6.7,1.8,12.6,3.4,18.8,5,7.4,1.9,1.6,14.9-5,18.7Z"/></svg>