<svg id="Layer_1" data-name="Layer 1" xmlns="http://www.w3.org/2000/svg" viewBox="0 0 38 24"><defs><style>.cls-1{fill:#fff;}</style></defs><path d="M35,0H3A3,3,0,0,0,0,3V21a3,3,0,0,0,3,3H35a3,3,0,0,0,3-3V3A3,3,0,0,0,35,0Z"/><path class="cls-1" d="M36.12,10l-1.06-.61L34,8.75a1.07,1.07,0,0,0-1.6.93v.13a.23.23,0,0,0,.1.19l.5.28a.21.21,0,0,0,.31-.18V9.78a.21.21,0,0,1,.32-.19l1,.57,1,.56a.22.22,0,0,1,0,.37l-1,.56-1,.57a.21.21,0,0,1-.32-.19v-.16a1.07,1.07,0,0,0-1.6-.93l-1.08.62-1.06.61a1.07,1.07,0,0,0,0,1.86l1.06.61,1.08.61a1.07,1.07,0,0,0,1.6-.93v-.13a.23.23,0,0,0-.1-.19l-.5-.29a.21.21,0,0,0-.31.19v.32a.21.21,0,0,1-.32.19l-1-.57-1-.56a.22.22,0,0,1,0-.37l1-.56,1-.57a.21.21,0,0,1,.32.19v.16a1.07,1.07,0,0,0,1.6.93l1.08-.62,1.06-.61A1.07,1.07,0,0,0,36.12,10Z"/><path class="cls-1" d="M29.14,10.18l-2.49,5.14h-1l.93-1.92-1.46-3.22h1.06l.94,2.15,1-2.15Z"/><path class="cls-1" d="M4.25,12a1,1,0,1,0-2,0,1,1,0,0,0,1,1.05,1,1,0,0,0,1-1.05m0,1.83v-.48a1.49,1.49,0,0,1-1.16.54A1.79,1.79,0,0,1,1.34,12a1.82,1.82,0,0,1,1.78-1.89,1.49,1.49,0,0,1,1.14.53v-.46h.89v3.65Z"/><path class="cls-1" d="M9.52,13c-.32,0-.4-.12-.4-.42V11h.57v-.79H9.12V9.29H8.2v.89H7V9.81c0-.3.12-.42.44-.42h.2V8.68H7.21c-.76,0-1.12.25-1.12,1v.49H5.58V11h.51v2.86H7V11H8.2v1.79c0,.75.28,1.07,1,1.07H9.7V13Z"/><path class="cls-1" d="M12.82,11.67a.87.87,0,0,0-.91-.75.9.9,0,0,0-.92.75ZM11,12.24a.9.9,0,0,0,.94.85,1,1,0,0,0,.86-.47h.94a1.79,1.79,0,0,1-1.82,1.27A1.8,1.8,0,0,1,10,12a1.89,1.89,0,1,1,3.78,0,.85.85,0,0,1,0,.23Z"/><path class="cls-1" d="M19.66,12a1,1,0,1,0-1,1.05,1,1,0,0,0,1-1.05m-2.89,3.32V10.18h.89v.47a1.49,1.49,0,0,1,1.16-.54A1.79,1.79,0,0,1,20.58,12a1.82,1.82,0,0,1-1.78,1.89,1.43,1.43,0,0,1-1.11-.49v1.92Z"/><path class="cls-1" d="M23.82,12a1,1,0,1,0-2,0,1,1,0,0,0,1,1.05,1,1,0,0,0,1-1.05m0,1.83v-.48a1.46,1.46,0,0,1-1.15.54A1.79,1.79,0,0,1,20.91,12a1.82,1.82,0,0,1,1.78-1.89,1.46,1.46,0,0,1,1.13.53v-.46h.9v3.65Z"/><path class="cls-1" d="M15.15,10.54a.91.91,0,0,1,.79-.43.89.89,0,0,1,.39.08v.94a1.18,1.18,0,0,0-.65-.17.64.64,0,0,0-.5.71v2.16h-.93V10.18h.9Z"/></svg>