<svg xmlns="http://www.w3.org/2000/svg" viewBox="0 0 21.11 30.2"><defs><style>.cls-1{fill:#070606;stroke:#000;stroke-miterlimit:10;stroke-width:0.2px;}</style></defs><title>Asset 6</title><g id="Layer_2" data-name="Layer 2"><g id="Layer_1-2" data-name="Layer 1"><path class="cls-1" d="M15.44,24.39H1V4.83H15.44V7.31h.91V1.64A1.54,1.54,0,0,0,14.8.1H1.64A1.54,1.54,0,0,0,.1,1.64V28.56A1.54,1.54,0,0,0,1.64,30.1H14.8a1.54,1.54,0,0,0,1.54-1.54v-4.7h-.91ZM1.64,1H14.8a.63.63,0,0,1,.63.63V3.93H1V1.64A.63.63,0,0,1,1.64,1ZM14.8,29.19H1.64A.63.63,0,0,1,1,28.56V25.3H15.44v3.26A.63.63,0,0,1,14.8,29.19Z"/><rect class="cls-1" x="7.44" y="2.14" width="1.56" height="0.62"/><path class="cls-1" d="M8.22,26.26a1,1,0,1,0,1,1A1,1,0,0,0,8.22,26.26Zm0,1.42a.4.4,0,1,1,.4-.4A.4.4,0,0,1,8.22,27.69Z"/><path class="cls-1" d="M18.33,11.08a4.85,4.85,0,0,0-9.07,0H6.58v11a1.18,1.18,0,0,0,1.18,1.18H19.83A1.18,1.18,0,0,0,21,22.06v-11ZM13.8,8.84a4,4,0,0,1,3.55,2.23h-7.1A4,4,0,0,1,13.8,8.84ZM20.1,22.06a.27.27,0,0,1-.27.27H7.76a.27.27,0,0,1-.27-.27V12H9a4.82,4.82,0,0,0-.07.66H8.42v.91H10.3v-.91H9.85A3.93,3.93,0,0,1,9.93,12h7.73a4,4,0,0,1,.08.66h-.49v.91h1.88v-.91h-.49a4.88,4.88,0,0,0-.07-.66H20.1Z"/><rect class="cls-1" x="9.25" y="19.9" width="8.94" height="0.91"/></g></g></svg>