<?xml version="1.0" encoding="utf-8"?>
<!-- Generator: Adobe Illustrator 23.0.3, SVG Export Plug-In . SVG Version: 6.00 Build 0)  -->
<svg version="1.1" xmlns="http://www.w3.org/2000/svg" xmlns:xlink="http://www.w3.org/1999/xlink" x="0px" y="0px"
	 viewBox="0 0 472 296" style="enable-background:new 0 0 472 296;" xml:space="preserve">
<style type="text/css">
	.st0{fill:#FFFFFF;}
	.st1{fill:#0079C1;}
	.st2{fill:#FAB400;}
	.st3{fill:#1C2F76;}
	.st4{fill:none;}
	.st5{fill:#231F20;}
	.st6{fill:#FF5F00;}
	.st7{fill:#EB001B;}
	.st8{fill:#F79E1B;}
	.st9{fill:#7673C0;}
	.st10{fill:#00A1DF;}
	.st11{fill:#C3C3C0;}
</style>
<g id="Layer_1">
</g>
<g id="Layer_2">
	<g>
		<path class="st11" d="M460,295.72H12.84c-6.6,0-12-5.4-12-12V12.87c0-6.6,5.4-12,12-12H460c6.6,0,12,5.4,12,12v270.85
			C472,290.32,466.6,295.72,460,295.72z"/>
		<g>
			<path class="st0" d="M87.5,164.17v-22.86l-7.89,22.86h-6.35l-7.89-22.86v22.86h-5.81v-31.75h8.62l8.25,22.86l8.25-22.86h8.62
				v31.75H87.5z"/>
			<path class="st0" d="M100.74,164.17v-31.75h5.81v31.75H100.74z"/>
			<path class="st0" d="M169.51,164.17V151.2h-14.74v12.97h-5.81v-31.75h5.81v12.97h14.74v-12.97h5.81v31.75H169.51z"/>
			<path class="st0" d="M199.89,151.24h-8.62l4.31-10.93L199.89,151.24z M211.32,164.17l-12.75-31.75h-5.99l-12.74,31.75h6.26
				l2.9-7.21h13.15l2.9,7.21H211.32z"/>
			<path class="st0" d="M215.86,164.17v-31.75h22.04v5.81h-16.24v7.17h16.24v5.81h-16.24v7.17h16.24v5.8H215.86z"/>
			<path class="st0" d="M246.25,164.17v-31.75h5.81v25.94h13.61v5.8H246.25z"/>
			<path class="st0" d="M308.47,164.17l-10.43-14.6l-4.08,4.17v10.43h-5.81v-31.75h5.81v13.24l12.88-13.24h7.71l-12.38,12.88
				l13.47,18.87H308.47z"/>
			<path class="st0" d="M343.35,148.29c0,5.99-4.85,10.84-10.84,10.84c-5.99,0-10.84-4.85-10.84-10.84
				c0-5.99,4.85-10.84,10.84-10.84C338.5,137.45,343.35,142.31,343.35,148.29z M349.15,148.29c0-9.21-7.44-16.64-16.65-16.64
				s-16.64,7.44-16.64,16.64c0,9.21,7.44,16.65,16.64,16.65S349.15,157.5,349.15,148.29z"/>
			<path class="st0" d="M376,143.08c0,2.68-2.18,4.85-4.85,4.85h-9.48v-9.71h9.48C373.83,138.23,376,140.4,376,143.08z
				 M382.9,164.17l-6.76-11.65c3.36-1.77,5.67-5.35,5.67-9.43c0-5.9-4.76-10.66-10.66-10.66h-15.28v31.75h5.81v-10.43h8.44
				l5.99,10.43H382.9z"/>
			<path class="st0" d="M399.81,164.94c-5.49,0-11.16-2.27-14.2-6.67l4.9-3.54c2.31,3.13,5.67,4.67,9.3,4.67
				c3.17,0,7.21-0.95,7.21-4.04c0-3.49-5.9-4.04-8.53-4.67c-5.22-1.27-11.11-2.4-11.11-9.21c0-6.67,6.39-9.84,12.29-9.84
				c5.44,0,9.98,1.95,13.29,6.3l-4.76,3.58c-2.13-2.72-4.67-4.35-8.53-4.35c-3.45,0-6.03,1.22-6.03,3.45c0,3.58,5.13,3.63,9.52,4.72
				c4.67,1.13,10.11,2.54,10.11,9.16C413.28,162.26,406.16,164.94,399.81,164.94z"/>
			<path class="st0" d="M136.56,154.26c-1.67,2.94-4.01,4.88-8.3,4.88c-5.99,0-10.58-4.85-10.58-10.84c0-5.99,4.6-10.84,10.58-10.84
				c4.38,0,7.01,2.2,8.61,5.46h6.34c-1.68-6.56-7.76-11.27-15.08-11.27c-9.21,0-16.26,7.44-16.26,16.64
				c0,9.21,7.05,16.65,16.26,16.65c7.1,0,12.96-4.21,14.89-10.68H136.56z"/>
		</g>
	</g>
</g>
</svg>
