<svg xmlns="http://www.w3.org/2000/svg" viewBox="0 0 67.68 67.68"><defs><style>.cls-1{fill:#af916b;}.cls-2{fill:#c49a6c;}.cls-3{fill:none;}.cls-4{fill:#a97c50;}.cls-5{fill:#876c4a;}.cls-6{fill:#fff;}</style></defs><title>FreeStandardShipping</title><g id="Layer_2" data-name="Layer 2"><g id="Layer_2-2" data-name="Layer 2"><path class="cls-1" d="M29,19.16a1,1,0,0,0,.15.34,1,1,0,0,1-.15-.34.16.16,0,0,0,0-.09.16.16,0,0,1,0,.09m4.87,9.14h0s-.08-.5-.21-1.12c0-.1,0-.2-.07-.3,0,.1,0,.2.07.3.13.62.21,1.11.21,1.11m6-10a.08.08,0,0,1,0-.06.08.08,0,0,0,0,.06,10.3,10.3,0,0,1-1.76,2.13,10.3,10.3,0,0,0,1.76-2.13m4.53,1.62-.76-1.09.76,1.09M23.1,35.18l.71.32-.56-2.69,2.49-5.32a7.21,7.21,0,0,0-1.56-1.37s-.05,0-.08-.07,0,.07.08.07a7.21,7.21,0,0,1,1.56,1.37l.62-1.34,5.11,5.1,3.81.53s1.31-.54,2.73-1.17c-1.42.63-2.73,1.17-2.73,1.17l-3.81-.53L36,35.81l-.67-.88.67.88,7,7L58.38,21.19l9.12,9.12A33.84,33.84,0,1,0,33.38,67.67L9.3,43.59Z"/><path class="cls-2" d="M33.63,27.18c0-.1,0-.2-.07-.3,0,.1,0,.2.07.3"/><rect class="cls-3" width="67.68" height="67.68"/><path class="cls-4" d="M36.66,36.66,36,35.81Z"/><polygon class="cls-4" points="42.7 44.7 35.85 41.63 42.7 44.7 42.7 44.7"/><path class="cls-5" d="M67.5,30.31l-9.12-9.12L43,42.82l-7-7-4.56-4.56L29,30.91s-1.82-2-3.23-3.42l-2.49,5.32.56,2.69-.71-.32L9.3,43.59,33.38,67.67h.46c.61,0,1.22,0,1.82-.05L19,50.93l16.7,16.7a33.82,33.82,0,0,0,32-33.79A34.33,34.33,0,0,0,67.5,30.31ZM35.85,41.62,42.7,44.7h0Z"/><path class="cls-5" d="M31.47,31.25l-5.1-5.1-.63,1.34C27.15,28.9,29,30.91,29,30.91Z"/><path class="cls-6" d="M19,26.15A1.86,1.86,0,0,0,17.11,28v4.55H11.16A1.86,1.86,0,0,0,9.3,34.42v9.17h4.42a4.21,4.21,0,1,0,8.41,0h4.24V26.15Z"/><path class="cls-6" d="M28,21.19v22.4H45.69a4.21,4.21,0,1,0,8.41,0h4.28V21.19Z"/></g></g></svg>