<?xml version="1.0" encoding="utf-8"?>
<!-- Generator: Adobe Illustrator 26.2.1, SVG Export Plug-In . SVG Version: 6.00 Build 0)  -->
<svg version="1.1" id="Layer_1" xmlns="http://www.w3.org/2000/svg" xmlns:xlink="http://www.w3.org/1999/xlink" x="0px" y="0px"
	 viewBox="0 0 224 224" style="enable-background:new 0 0 224 224;" xml:space="preserve">
<style type="text/css">
	.st0{clip-path:url(#SVGID_00000079475125552795732860000010227342519635360677_);fill:#AE906B;}
	.st1{clip-path:url(#SVGID_00000163786043300982980860000000439279301728443806_);fill:#866C4A;}
	.st2{clip-path:url(#SVGID_00000024700996025488207450000011629851050666032552_);fill:#FFFFFF;}
	
		.st3{clip-path:url(#SVGID_00000046339593951429509100000006676710649702286465_);fill:none;stroke:#AE906B;stroke-width:2.026;stroke-miterlimit:10;}
	.st4{clip-path:url(#SVGID_00000079454675059488343130000017949494930313128087_);fill:none;}
	
		.st5{clip-path:url(#SVGID_00000050641907488040654370000014309092377249685175_);fill:none;stroke:#AE906B;stroke-width:2.026;stroke-miterlimit:10;}
	.st6{clip-path:url(#SVGID_00000016769314198949589200000011060972705642379137_);fill:#AE906B;}
	.st7{clip-path:url(#SVGID_00000137132951882749788810000008834000106797594014_);fill:#AE906B;}
</style>
<g>
	<g>
		<defs>
			<rect id="SVGID_1_" x="-16.9" y="-16.1" width="257" height="256.2"/>
		</defs>
		<clipPath id="SVGID_00000173121111872388016150000010376331874435624866_">
			<use xlink:href="#SVGID_1_"  style="overflow:visible;"/>
		</clipPath>
		<path style="clip-path:url(#SVGID_00000173121111872388016150000010376331874435624866_);fill:#AE906B;" d="M110.4,142.3l29,15.5
			l3-28.4l22.5-73.2l58.2,58.2c0-0.8,0.1-1.6,0.1-2.4c0-61.6-50-111.6-111.6-111.6C50,0.4,0,50.4,0,112c0,61.6,50,111.6,111.6,111.6
			c1.2,0,2.3-0.1,3.5-0.1l-48.6-48.6L110.4,142.3z"/>
	</g>
	<g>
		<defs>
			<rect id="SVGID_00000016789838931062794310000001125195401256873100_" x="-16.9" y="-16.1" width="257" height="256.2"/>
		</defs>
		<clipPath id="SVGID_00000048492759750326793730000004095829869961477303_">
			<use xlink:href="#SVGID_00000016789838931062794310000001125195401256873100_"  style="overflow:visible;"/>
		</clipPath>
		<path style="clip-path:url(#SVGID_00000048492759750326793730000004095829869961477303_);fill:#866C4A;" d="M223.1,114.4
			l-58.2-58.2l-22.5,73.2l-3,28.4l-29-15.5l-43.9,32.5l48.6,48.6C174.3,221.7,221.8,173.8,223.1,114.4"/>
	</g>
	<g>
		<defs>
			<rect id="SVGID_00000062179147297864527950000004778816223151027893_" x="-16.9" y="-16.1" width="257" height="256.2"/>
		</defs>
		<clipPath id="SVGID_00000138569489029708545450000008080807284941984418_">
			<use xlink:href="#SVGID_00000062179147297864527950000004778816223151027893_"  style="overflow:visible;"/>
		</clipPath>
		<path style="clip-path:url(#SVGID_00000138569489029708545450000008080807284941984418_);fill:#FFFFFF;" d="M113.6,36.8
			c-42.6,0-77.2,34.6-77.2,77.2c0,42.6,34.6,77.2,77.2,77.2c1.4,0,2.7,0,4-0.1c39.5-2,71.1-33.7,73-73.2c0.1-1.3,0.1-2.6,0.1-3.9
			C190.7,71.3,156.2,36.8,113.6,36.8"/>
	</g>
	<g>
		<defs>
			<rect id="SVGID_00000006689711080145632900000000365986703995533735_" x="-16.9" y="-16.1" width="257" height="256.2"/>
		</defs>
		<clipPath id="SVGID_00000015354116962516192650000013385414080693597326_">
			<use xlink:href="#SVGID_00000006689711080145632900000000365986703995533735_"  style="overflow:visible;"/>
		</clipPath>
		
			<path style="clip-path:url(#SVGID_00000015354116962516192650000013385414080693597326_);fill:none;stroke:#AE906B;stroke-width:2.026;stroke-miterlimit:10;" d="
			M67.6,141.6l-12.8,7.3 M172.3,81.7l-13.4,7.7 M69.6,89.5l-14.4-8.4 M171.9,149.5l-13.8-8.1 M86.8,161l-7.4,12.7 M147.8,56.9
			L140,70.3 M62.6,114H45.9 M181.2,114h-16 M113.6,46.3v15.5 M113.6,166.9v14.7"/>
	</g>
	<g>
		<defs>
			<rect id="SVGID_00000168816325673161543120000017739120358014953649_" x="-16.9" y="-16.1" width="257" height="256.2"/>
		</defs>
		<clipPath id="SVGID_00000124129525695681955330000005259444269517438373_">
			<use xlink:href="#SVGID_00000168816325673161543120000017739120358014953649_"  style="overflow:visible;"/>
		</clipPath>
		
			<line style="clip-path:url(#SVGID_00000124129525695681955330000005259444269517438373_);fill:none;" x1="139.2" y1="160.1" x2="147.2" y2="174"/>
	</g>
	<g>
		<defs>
			<rect id="SVGID_00000017505572886631683640000006165757925975083439_" x="-16.9" y="-16.1" width="257" height="256.2"/>
		</defs>
		<clipPath id="SVGID_00000029726181334177071980000004138972319514221217_">
			<use xlink:href="#SVGID_00000017505572886631683640000006165757925975083439_"  style="overflow:visible;"/>
		</clipPath>
		
			<path style="clip-path:url(#SVGID_00000029726181334177071980000004138972319514221217_);fill:none;stroke:#AE906B;stroke-width:2.026;stroke-miterlimit:10;" d="
			M88.2,71l-8.3-14.5 M139.2,160.1l8,13.9"/>
	</g>
	<g>
		<defs>
			<rect id="SVGID_00000042716504609579348530000015824549538865970817_" x="-16.9" y="-16.1" width="257" height="256.2"/>
		</defs>
		<clipPath id="SVGID_00000111193208063757674280000009454302279227761589_">
			<use xlink:href="#SVGID_00000042716504609579348530000015824549538865970817_"  style="overflow:visible;"/>
		</clipPath>
		<path style="clip-path:url(#SVGID_00000111193208063757674280000009454302279227761589_);fill:#AE906B;" d="M112.6,117.5
			c0,0,1.3,0.7,4.5-1.1c3.2-1.8,19.1-45.2,19.1-45.2s-25.8,38.5-25.4,42.1C111.3,116.9,112.6,117.5,112.6,117.5"/>
	</g>
	<g>
		<defs>
			<rect id="SVGID_00000104673615073266023520000007524840153620185991_" x="-16.9" y="-16.1" width="257" height="256.2"/>
		</defs>
		<clipPath id="SVGID_00000174559689206935724850000005170815480384021933_">
			<use xlink:href="#SVGID_00000104673615073266023520000007524840153620185991_"  style="overflow:visible;"/>
		</clipPath>
		<path style="clip-path:url(#SVGID_00000174559689206935724850000005170815480384021933_);fill:#AE906B;" d="M116.8,116.5
			c0,0,0.4-0.9-0.8-2.9c-1.2-2-29.4-11.7-29.4-11.7s25.1,16.1,27.4,15.8C116.3,117.4,116.8,116.5,116.8,116.5"/>
	</g>
</g>
</svg>
