<?xml version="1.0" encoding="utf-8"?>
<!-- Generator: Adobe Illustrator 26.2.1, SVG Export Plug-In . SVG Version: 6.00 Build 0)  -->
<svg version="1.1" id="Layer_1" xmlns="http://www.w3.org/2000/svg" xmlns:xlink="http://www.w3.org/1999/xlink" x="0px" y="0px"
	 viewBox="0 0 224 224" style="enable-background:new 0 0 224 224;" xml:space="preserve">
<style type="text/css">
	.st0{clip-path:url(#SVGID_00000114068923706326306460000014566344198933568656_);fill:#AE906B;}
	.st1{clip-path:url(#SVGID_00000038380606885425230930000002250512411934447295_);fill:#866C4A;}
	.st2{clip-path:url(#SVGID_00000163064982333321629860000016434432236332262838_);fill:#FFFFFF;}
	.st3{clip-path:url(#SVGID_00000031206791530358417040000018284893647174544258_);fill:#AE906B;}
	.st4{clip-path:url(#SVGID_00000004521121526702676700000001746239091619423119_);fill:#AE906B;}
	.st5{clip-path:url(#SVGID_00000090262243346187121850000014379565266616815798_);fill:#AE906B;}
	.st6{clip-path:url(#SVGID_00000039112215811761139120000005742862105672039566_);fill:#AE906B;}
	.st7{clip-path:url(#SVGID_00000145033015385906562570000003416118682584155529_);fill:#AE906B;}
</style>
<g>
	<g>
		<defs>
			<rect id="SVGID_1_" x="-16.5" y="-16.1" width="257" height="256.2"/>
		</defs>
		<clipPath id="SVGID_00000040574790110412158260000017077852912716618132_">
			<use xlink:href="#SVGID_1_"  style="overflow:visible;"/>
		</clipPath>
		<path style="clip-path:url(#SVGID_00000040574790110412158260000017077852912716618132_);fill:#AE906B;" d="M109.5,194l1.2,1
			l1.3-3.1l2.6-60.7l15.4-19.3l3.4-39.5L131.6,39l-1.4-10.3c0,0,0.5,0.6,1.4,1.6l0.1-1.1l91.9,91.9c0.2-3,0.4-5.9,0.4-9
			C224.1,50.1,173.9-0.1,112-0.1S-0.1,50.1-0.1,112c0,61.9,50.2,112.1,112.1,112.1c2.7,0,5.4-0.1,8-0.3l-27.3-27.3L109.5,194z"/>
	</g>
	<g>
		<defs>
			<rect id="SVGID_00000069384236060656738190000008067485881739908497_" x="-16.5" y="-16.1" width="257" height="256.2"/>
		</defs>
		<clipPath id="SVGID_00000150793447237600536290000005834892378697813126_">
			<use xlink:href="#SVGID_00000069384236060656738190000008067485881739908497_"  style="overflow:visible;"/>
		</clipPath>
		<path style="clip-path:url(#SVGID_00000150793447237600536290000005834892378697813126_);fill:#866C4A;" d="M223.2,125.6
			c0.2-1.5,0.3-3,0.5-4.6l-91.9-91.9l-0.1,1.1c-0.9-1-1.4-1.6-1.4-1.6l1.4,10.3l1.9,33.5l-3.4,39.5l-15.4,19.3L112,192l-1.3,3.1
			l-1.2-1l-16.8,2.4l27.3,27.3c2-0.1,3.9-0.3,5.8-0.6C176.8,216.9,217.1,176.5,223.2,125.6"/>
	</g>
	<g>
		<defs>
			<rect id="SVGID_00000043436811394843051040000004185908806021182655_" x="-16.5" y="-16.1" width="257" height="256.2"/>
		</defs>
		<clipPath id="SVGID_00000035500119326757765030000013340939717997329030_">
			<use xlink:href="#SVGID_00000043436811394843051040000004185908806021182655_"  style="overflow:visible;"/>
		</clipPath>
		<path style="clip-path:url(#SVGID_00000035500119326757765030000013340939717997329030_);fill:#FFFFFF;" d="M121.9,191.8
			c-4-1.7-6.4-3.8-6.6-8.3c-0.2-3.5-0.1-41.6-0.1-45.1c0-3.8,1.7-6.8,4.1-9.7c4.1-5,8.2-10,12-15.2c4.4-6,6.1-12.8,5.5-20.3
			c-1.5-20.7-2.8-41.4-4.2-62.1c-0.1-1.7-0.5-2.4-2.3-2.4c-11.3,0.1-22.7,0.1-34,0c-1.7,0-2.3,0.6-2.4,2.3
			c-1.3,20.7-2.7,41.4-4.2,62.1c-0.5,7.4,1.1,14.2,5.4,20.1c3.9,5.5,8.4,10.5,12.4,16c1.6,2.2,3.2,4.8,3.6,7.3
			c0.6,4,0.3,42.8,0.2,46.9c-0.2,4.5-2.6,6.6-6.6,8.3c-3,1.3-6.3,1.9-9.5,2.9c-0.9,0.3-1.8,0.8-2.7,1.2c0.1,0.2,0.2,0.4,0.3,0.7h41
			c0.1-0.2,0.2-0.5,0.3-0.7c-1-0.4-1.9-0.9-2.9-1.2C128.1,193.6,124.9,193,121.9,191.8 M97,35.1c0.1-1.8,0.8-2.5,2.6-2.4
			c9.2,0.1,18.3,0.1,27.5,0c1.7,0,2.4,0.4,2.5,2.2c0.6,10.6,1.4,21.1,2,31.7c0,0.5,0.1,0.9,0.1,1.4H95.2C95.8,57,96.4,46.1,97,35.1"
			/>
	</g>
	<g>
		<defs>
			<rect id="SVGID_00000081626466734091493590000002180922261420625591_" x="-16.5" y="-16.1" width="257" height="256.2"/>
		</defs>
		<clipPath id="SVGID_00000173137645081775127030000018257539141654692019_">
			<use xlink:href="#SVGID_00000081626466734091493590000002180922261420625591_"  style="overflow:visible;"/>
		</clipPath>
		<path style="clip-path:url(#SVGID_00000173137645081775127030000018257539141654692019_);fill:#AE906B;" d="M122.3,80.5
			c-2-0.4-3.3-2.3-3-4.3c0.4-2,2.3-3.3,4.3-3s3.3,2.3,3,4.3C126.3,79.5,124.3,80.9,122.3,80.5"/>
	</g>
	<g>
		<defs>
			<rect id="SVGID_00000183244682122714739870000008781331234644959934_" x="-16.5" y="-16.1" width="257" height="256.2"/>
		</defs>
		<clipPath id="SVGID_00000053542456661528822890000000155394355254557589_">
			<use xlink:href="#SVGID_00000183244682122714739870000008781331234644959934_"  style="overflow:visible;"/>
		</clipPath>
		<path style="clip-path:url(#SVGID_00000053542456661528822890000000155394355254557589_);fill:#AE906B;" d="M114.8,120.8
			c-2-0.4-3.3-2.3-3-4.3c0.4-2,2.3-3.3,4.3-3c2,0.4,3.3,2.3,3,4.3C118.7,119.8,116.8,121.1,114.8,120.8"/>
	</g>
	<g>
		<defs>
			<rect id="SVGID_00000121993829104866344120000013530714058086997177_" x="-16.5" y="-16.1" width="257" height="256.2"/>
		</defs>
		<clipPath id="SVGID_00000078750326860338056560000013831852543352330625_">
			<use xlink:href="#SVGID_00000121993829104866344120000013530714058086997177_"  style="overflow:visible;"/>
		</clipPath>
		<path style="clip-path:url(#SVGID_00000078750326860338056560000013831852543352330625_);fill:#AE906B;" d="M117.3,85
			c0,1.4-1.2,2.6-2.6,2.6c-1.5,0-2.6-1.2-2.6-2.6c0-1.5,1.2-2.6,2.6-2.6C116.1,82.3,117.3,83.5,117.3,85"/>
	</g>
	<g>
		<defs>
			<rect id="SVGID_00000153705009602631732030000002898388463983440799_" x="-16.5" y="-16.1" width="257" height="256.2"/>
		</defs>
		<clipPath id="SVGID_00000051366337487146973650000010260190626351324318_">
			<use xlink:href="#SVGID_00000153705009602631732030000002898388463983440799_"  style="overflow:visible;"/>
		</clipPath>
		<path style="clip-path:url(#SVGID_00000051366337487146973650000010260190626351324318_);fill:#AE906B;" d="M124.9,94.3
			c-1.4-0.4-2.3-1.8-1.9-3.2c0.4-1.4,1.8-2.3,3.2-1.9c1.4,0.4,2.3,1.8,1.9,3.2C127.7,93.8,126.3,94.7,124.9,94.3"/>
	</g>
	<g>
		<defs>
			<rect id="SVGID_00000168085083815725447480000005979095072541623965_" x="-16.5" y="-16.1" width="257" height="256.2"/>
		</defs>
		<clipPath id="SVGID_00000072995696710301211790000007775949313626770593_">
			<use xlink:href="#SVGID_00000168085083815725447480000005979095072541623965_"  style="overflow:visible;"/>
		</clipPath>
		<path style="clip-path:url(#SVGID_00000072995696710301211790000007775949313626770593_);fill:#AE906B;" d="M121.4,108.2
			c-1.4-0.4-2.3-1.8-1.9-3.2c0.4-1.4,1.8-2.3,3.2-1.9c1.4,0.4,2.3,1.8,1.9,3.2C124.2,107.7,122.8,108.6,121.4,108.2"/>
	</g>
</g>
</svg>
