<svg xmlns="http://www.w3.org/2000/svg" viewBox="0 0 58.18 35.38"><defs><style>.cls-1{fill:none;stroke:#000;stroke-miterlimit:10;stroke-width:1.5px;}</style></defs><title>Review_Bonus_Stars</title><g id="Layer_2" data-name="Layer 2"><g id="Layer_1-2" data-name="Layer 1"><polygon class="cls-1" points="9.17 20.43 10.79 25.39 16.02 25.39 11.78 28.46 13.4 33.42 9.17 30.36 4.93 33.42 6.55 28.46 2.31 25.39 7.55 25.39 9.17 20.43"/><polygon class="cls-1" points="49.01 20.43 50.63 25.39 55.86 25.39 51.63 28.46 53.24 33.42 49.01 30.36 44.77 33.42 46.4 28.46 42.16 25.39 47.4 25.39 49.01 20.43"/><polygon class="cls-1" points="29.09 20.43 30.71 25.39 35.94 25.39 31.71 28.46 33.32 33.42 29.09 30.36 24.85 33.42 26.48 28.46 22.24 25.39 27.48 25.39 29.09 20.43"/><polygon class="cls-1" points="19.13 2.42 20.75 7.39 25.98 7.39 21.75 10.46 23.36 15.42 19.13 12.35 14.89 15.42 16.51 10.46 12.28 7.39 17.51 7.39 19.13 2.42"/><polygon class="cls-1" points="39.05 2.42 40.67 7.39 45.9 7.39 41.67 10.46 43.28 15.42 39.05 12.35 34.81 15.42 36.44 10.46 32.2 7.39 37.44 7.39 39.05 2.42"/></g></g></svg>