<svg xmlns="http://www.w3.org/2000/svg" viewBox="0 0 30.13 25.95"><defs><style>.cls-1{fill:#070606;stroke:#000;stroke-miterlimit:10;stroke-width:0.1px;}</style></defs><title>Asset 5</title><g id="Layer_2" data-name="Layer 2"><g id="Layer_1-2" data-name="Layer 1"><rect class="cls-1" x="18.47" y="4.35" width="3.11" height="1.15" transform="translate(2.39 15.61) rotate(-45)"/><rect class="cls-1" x="14.49" y="0.05" width="1.15" height="4.61"/><rect class="cls-1" x="9.08" y="3.39" width="1.15" height="3.11" transform="translate(-0.67 8.28) rotate(-44.99)"/><path class="cls-1" d="M3,20.67l.39.27L2.23,23.58.51,22.89.07,24l4.55,1.93.44-1.08-1.78-.73L4.43,21.4l.47.1a3.87,3.87,0,0,0,.87.06,4.77,4.77,0,0,0,1.82-.38,4.83,4.83,0,0,0,2.65-2.61l2.85-6.73L4.15,8.1,1.3,14.84a4.82,4.82,0,0,0,0,3.71A4.72,4.72,0,0,0,3,20.67Zm-.63-5.35h0L4.77,9.63l6.82,2.87L9.22,18.18a3.69,3.69,0,0,1-3.39,2.26,3.59,3.59,0,0,1-1.45-.31,3.62,3.62,0,0,1-2-2A3.58,3.58,0,0,1,2.35,15.32Z"/><path class="cls-1" d="M29.63,22.9l-1.76.73L26.72,21l.39-.27a4.61,4.61,0,0,0,1.71-2.15h0a4.82,4.82,0,0,0,0-3.71L25.94,8.1,17,11.85l2.85,6.73a5,5,0,0,0,4.46,3,7.35,7.35,0,0,0,.85-.06l.51-.06,1.13,2.62L25,24.8l.44,1,4.58-1.9Zm-5.29-2.49A3.7,3.7,0,0,1,23,20.14h0a3.63,3.63,0,0,1-2-2l-2.37-5.67L25.4,9.59l2.37,5.68a3.69,3.69,0,0,1-2,4.83A3.76,3.76,0,0,1,24.33,20.41Z"/></g></g></svg>