<svg xmlns="http://www.w3.org/2000/svg" viewBox="0 0 22.94 20.24"><title>Asset 3</title><g id="Layer_2" data-name="Layer 2"><g id="Layer_1-2" data-name="Layer 1"><path d="M22.88,5.53A6.48,6.48,0,0,0,20.3,1c-2.6-1.84-6-1.17-8.83,1.75C8.62-.15,5.24-.82,2.62,1A6.45,6.45,0,0,0,.06,5.49a8.87,8.87,0,0,0,2.23,6.79c.93,1.11,1.73,2.07,8.8,7.67l.37.29.37-.29c7.14-5.68,7.91-6.6,8.8-7.67A8.8,8.8,0,0,0,22.88,5.53Zm-3.16,6c-.83,1-1.55,1.86-8.26,7.21C4.82,13.46,4,12.52,3.2,11.52a7.71,7.71,0,0,1-2-5.88A5.26,5.26,0,0,1,3.31,2,4.22,4.22,0,0,1,5.79,1.2,7.25,7.25,0,0,1,11,4l.44.5L11.9,4C14.39,1.24,17.41.44,19.61,2a5.29,5.29,0,0,1,2.09,3.68A7.64,7.64,0,0,1,19.72,11.52Z"/></g></g></svg>